<?xml version="1.0" encoding="UTF-8" standalone="no"?>
<svg xmlns="http://www.w3.org/2000/svg" xmlns:xlink="http://www.w3.org/1999/xlink" viewBox="0 0 1000 500" width="1000" height="500">
<defs>
  <style>
    .land { fill: #cacaca; stroke: #646464; stroke-width: 0.5; }
    .ocean { fill: #daeef6; }
  </style>
</defs>
<rect class="ocean" x="0" y="0" width="1000" height="500" />
<!-- North America -->
<path class="land" d="M150,120 C160,105 205,100 225,115 C245,95 265,90 285,105 C305,85 330,80 350,95 C370,80 370,70 390,65 C410,60 425,65 440,60 C455,65 465,65 480,50 C495,70 500,80 520,85 C505,100 490,115 490,135 C475,150 460,165 460,185 C475,205 490,220 490,240 C475,255 460,270 455,290 C440,305 420,315 400,320 C385,335 375,355 355,360 C335,350 315,330 300,310 C280,290 255,280 230,290 C210,270 185,260 160,255 C135,240 115,215 100,190 C120,185 115,160 115,140 C125,130 140,130 150,120 Z" />
<!-- South America -->
<path class="land" d="M230,290 C250,305 275,325 290,345 C310,360 330,380 345,400 C365,415 375,440 380,465 C360,475 345,450 325,440 C305,420 285,400 265,380 C245,355 225,330 210,305 C220,300 225,295 230,290 Z" />
<!-- Europe -->
<path class="land" d="M520,85 C540,80 560,85 580,90 C595,105 615,115 635,120 C655,135 675,155 690,175 C670,190 650,205 635,225 C615,240 595,260 570,255 C550,240 535,215 520,195 C505,175 495,150 490,135 C500,120 510,100 520,85 Z" />
<!-- Africa -->
<path class="land" d="M570,255 C590,250 605,235 625,225 C645,215 665,220 685,215 C705,225 720,240 735,255 C750,275 765,300 775,325 C760,345 740,365 720,385 C700,400 675,410 650,415 C625,430 605,450 580,460 C560,440 540,425 515,415 C500,395 485,370 470,345 C485,325 500,305 510,280 C530,265 550,255 570,255 Z" />
<!-- Asia -->
<path class="land" d="M690,175 C710,155 730,135 750,115 C770,95 795,80 820,70 C845,60 875,55 900,50 C915,70 925,95 930,120 C945,140 950,170 955,195 C935,215 910,235 885,245 C865,260 845,280 820,290 C800,305 775,320 750,325 C730,310 715,290 695,270 C685,250 670,230 670,210 C675,195 685,185 690,175 Z" />
<!-- Australia -->
<path class="land" d="M820,290 C840,285 860,290 880,300 C895,315 905,335 915,355 C900,375 880,390 860,405 C840,415 815,420 790,415 C775,400 765,380 755,360 C770,345 785,325 800,310 C805,300 815,295 820,290 Z" />
<!-- Antarctica -->
<path class="land" d="M380,465 C410,460 440,460 470,465 C500,470 530,470 560,475 C590,475 620,475 650,470 C670,465 690,465 710,460 C730,455 750,450 770,440 C750,435 730,435 710,430 C690,425 670,420 650,415 C625,425 600,435 580,445 C550,450 520,455 490,460 C455,465 415,470 380,465 Z" />
</svg>